<?xml version="1.0" encoding="utf-8"?>
<!-- Generator: Adobe Illustrator 26.5.0, SVG Export Plug-In . SVG Version: 6.00 Build 0)  -->
<svg version="1.1" id="Capa_1" xmlns="http://www.w3.org/2000/svg" xmlns:xlink="http://www.w3.org/1999/xlink" x="0px" y="0px"
	 viewBox="0 0 1571.7 641.4" style="enable-background:new 0 0 1571.7 641.4;" xml:space="preserve">
<style type="text/css">
	.st0{fill:#A3DDF1;}
	.st1{fill:#06486A;}
</style>
<path class="st0" d="M1260.9,510.8H262.4c-32.1,0-58.1-26-58.1-58.1v0c0-32.1,26-58.1,58.1-58.1h998.5c32.1,0,58.1,26,58.1,58.1v0
	C1319,484.8,1293,510.8,1260.9,510.8z"/>
<g>
	<path class="st1" d="M361.8,448.7h10.3v17.1c-2.4,1.7-5.1,3-8.1,3.9c-3.1,0.9-6.1,1.4-9.2,1.4c-4.3,0-8.2-0.9-11.7-2.7
		c-3.5-1.8-6.2-4.4-8.1-7.6c-2-3.3-2.9-6.9-2.9-11.1c0-4.1,1-7.8,2.9-11.1c2-3.3,4.7-5.8,8.2-7.6c3.5-1.8,7.4-2.7,11.8-2.7
		c3.8,0,7.3,0.6,10.4,1.9c3.1,1.3,5.6,3.2,7.7,5.6l-7.4,6.7c-2.8-3.1-6.1-4.6-10-4.6c-3.5,0-6.4,1.1-8.5,3.2c-2.2,2.1-3.2,5-3.2,8.6
		c0,2.3,0.5,4.3,1.5,6.1c1,1.8,2.4,3.2,4.1,4.2c1.8,1,3.8,1.5,6.1,1.5c2.2,0,4.3-0.5,6.3-1.4V448.7z"/>
	<path class="st1" d="M397.6,459.2h-6.4v11h-11.7v-41.2h18.8c3.7,0,7,0.6,9.7,1.9c2.7,1.2,4.9,3,6.4,5.3c1.5,2.3,2.2,5,2.2,8.1
		c0,3-0.7,5.6-2.1,7.8c-1.4,2.2-3.4,4-6,5.2l8.9,13h-12.5L397.6,459.2z M403.1,439.7c-1.2-1.1-3-1.6-5.4-1.6h-6.5v12.1h6.5
		c2.4,0,4.2-0.5,5.4-1.6c1.2-1,1.8-2.5,1.8-4.4C405,442.3,404.3,440.8,403.1,439.7z"/>
	<path class="st1" d="M450.8,462.2h-17.4l-3.2,8h-11.9l18.2-41.2h11.5l18.3,41.2H454L450.8,462.2z M447.4,453.6l-5.3-13.2l-5.3,13.2
		H447.4z"/>
	<path class="st1" d="M477.8,468.3c-3.4-1.8-6.1-4.4-8.1-7.6c-2-3.3-2.9-6.9-2.9-11.1c0-4.1,1-7.8,2.9-11.1c2-3.3,4.7-5.8,8.1-7.6
		c3.4-1.8,7.3-2.7,11.6-2.7c3.8,0,7.2,0.7,10.2,2c3,1.3,5.5,3.3,7.5,5.8l-7.4,6.7c-2.7-3.2-5.9-4.8-9.7-4.8c-2.2,0-4.2,0.5-6,1.5
		c-1.7,1-3.1,2.4-4.1,4.2c-1,1.8-1.4,3.8-1.4,6.2c0,2.3,0.5,4.4,1.4,6.2c1,1.8,2.3,3.2,4.1,4.2c1.7,1,3.7,1.5,6,1.5
		c3.8,0,7-1.6,9.7-4.8l7.4,6.7c-2,2.5-4.5,4.4-7.5,5.8c-3,1.3-6.4,2-10.2,2C485.1,471,481.2,470.1,477.8,468.3z"/>
	<path class="st1" d="M512.3,428.9H524v41.2h-11.7V428.9z"/>
	<path class="st1" d="M559.9,462.2h-17.4l-3.2,8h-11.9l18.2-41.2H557l18.3,41.2h-12.1L559.9,462.2z M556.5,453.6l-5.3-13.2
		l-5.3,13.2H556.5z"/>
	<path class="st1" d="M583.3,469.8c-3.1-0.8-5.7-1.9-7.7-3.3l3.8-8.6c1.8,1.2,4,2.2,6.4,2.9c2.4,0.7,4.8,1.1,7.2,1.1
		c4.5,0,6.7-1.1,6.7-3.4c0-1.2-0.6-2.1-1.9-2.6c-1.3-0.6-3.3-1.2-6.2-1.8c-3.1-0.7-5.7-1.4-7.8-2.1c-2.1-0.8-3.9-2-5.4-3.7
		c-1.5-1.7-2.2-4-2.2-6.8c0-2.5,0.7-4.8,2.1-6.8c1.4-2,3.4-3.6,6.2-4.8s6.1-1.8,10-1.8c2.7,0,5.4,0.3,8,0.9c2.6,0.6,4.9,1.5,6.9,2.7
		l-3.6,8.7c-3.9-2.1-7.7-3.2-11.4-3.2c-2.3,0-4,0.3-5.1,1c-1.1,0.7-1.6,1.6-1.6,2.7c0,1.1,0.6,1.9,1.9,2.5c1.3,0.6,3.3,1.1,6.1,1.7
		c3.1,0.7,5.7,1.4,7.8,2.1s3.8,2,5.4,3.7c1.5,1.7,2.3,3.9,2.3,6.8c0,2.5-0.7,4.7-2.1,6.7c-1.4,2-3.4,3.6-6.2,4.8
		c-2.7,1.2-6.1,1.8-10,1.8C589.7,471,586.5,470.6,583.3,469.8z"/>
	<path class="st1" d="M662.4,430.8c2.7,1.2,4.9,3,6.4,5.3c1.5,2.3,2.2,5,2.2,8.1c0,3.1-0.7,5.8-2.2,8.1c-1.5,2.3-3.6,4-6.4,5.3
		c-2.7,1.2-6,1.9-9.7,1.9h-7.2v10.8h-11.7v-41.2h18.8C656.4,428.9,659.6,429.6,662.4,430.8z M657.4,448.6c1.2-1,1.8-2.5,1.8-4.4
		c0-1.9-0.6-3.4-1.8-4.5c-1.2-1.1-3-1.6-5.4-1.6h-6.5v12.1h6.5C654.3,450.2,656.1,449.7,657.4,448.6z"/>
	<path class="st1" d="M686.2,468.2c-3.5-1.8-6.2-4.4-8.2-7.7c-2-3.3-3-6.9-3-11c0-4.1,1-7.8,3-11c2-3.3,4.7-5.8,8.2-7.7
		c3.5-1.8,7.4-2.8,11.7-2.8c4.4,0,8.3,0.9,11.7,2.8c3.5,1.8,6.2,4.4,8.2,7.7c2,3.3,3,6.9,3,11c0,4.1-1,7.8-3,11
		c-2,3.3-4.7,5.8-8.2,7.7c-3.5,1.8-7.4,2.8-11.7,2.8C693.6,471,689.7,470.1,686.2,468.2z M703.6,459.9c1.7-1,3-2.4,4-4.2
		c1-1.8,1.5-3.8,1.5-6.2c0-2.3-0.5-4.4-1.5-6.2s-2.3-3.2-4-4.2c-1.7-1-3.6-1.5-5.7-1.5c-2.1,0-4,0.5-5.7,1.5s-3,2.4-4,4.2
		c-1,1.8-1.5,3.8-1.5,6.2c0,2.3,0.5,4.4,1.5,6.2c1,1.8,2.3,3.2,4,4.2c1.7,1,3.6,1.5,5.7,1.5C700.1,461.3,702,460.8,703.6,459.9z"/>
	<path class="st1" d="M745,459.2h-6.4v11H727v-41.2h18.8c3.7,0,7,0.6,9.7,1.9c2.7,1.2,4.9,3,6.4,5.3c1.5,2.3,2.2,5,2.2,8.1
		c0,3-0.7,5.6-2.1,7.8c-1.4,2.2-3.4,4-6,5.2l8.9,13h-12.5L745,459.2z M750.6,439.7c-1.2-1.1-3-1.6-5.4-1.6h-6.5v12.1h6.5
		c2.4,0,4.2-0.5,5.4-1.6c1.2-1,1.8-2.5,1.8-4.4C752.4,442.3,751.8,440.8,750.6,439.7z"/>
	<path class="st1" d="M796.5,438.2h-12.7v-9.2h36.9v9.2h-12.6v32h-11.7V438.2z"/>
	<path class="st1" d="M829.2,466c-3.4-3.3-5.1-8.1-5.1-14.2v-22.8h11.7v22.5c0,6.6,2.6,9.9,7.8,9.9c5.2,0,7.8-3.3,7.8-9.9v-22.5
		h11.5v22.8c0,6.1-1.7,10.9-5.1,14.2c-3.4,3.3-8.2,5-14.3,5C837.4,471,832.6,469.3,829.2,466z"/>
	<path class="st1" d="M887.9,428.9h19.5c4.5,0,8.5,0.8,12,2.5c3.5,1.7,6.2,4.1,8.1,7.2c1.9,3.1,2.9,6.7,2.9,10.9
		c0,4.2-1,7.8-2.9,10.9c-1.9,3.1-4.6,5.5-8.1,7.2c-3.5,1.7-7.5,2.5-12,2.5h-19.5V428.9z M906.9,460.9c3.5,0,6.4-1,8.5-3
		c2.1-2,3.2-4.8,3.2-8.3c0-3.5-1.1-6.3-3.2-8.3s-5-3-8.5-3h-7.4v22.6H906.9z"/>
	<path class="st1" d="M945.6,468.2c-3.5-1.8-6.2-4.4-8.2-7.7c-2-3.3-3-6.9-3-11c0-4.1,1-7.8,3-11c2-3.3,4.7-5.8,8.2-7.7
		c3.5-1.8,7.4-2.8,11.7-2.8c4.4,0,8.3,0.9,11.7,2.8c3.5,1.8,6.2,4.4,8.2,7.7c2,3.3,3,6.9,3,11c0,4.1-1,7.8-3,11
		c-2,3.3-4.7,5.8-8.2,7.7c-3.5,1.8-7.4,2.8-11.7,2.8C953,471,949.1,470.1,945.6,468.2z M963,459.9c1.7-1,3-2.4,4-4.2
		c1-1.8,1.5-3.8,1.5-6.2c0-2.3-0.5-4.4-1.5-6.2s-2.3-3.2-4-4.2c-1.7-1-3.6-1.5-5.7-1.5c-2.1,0-4,0.5-5.7,1.5s-3,2.4-4,4.2
		c-1,1.8-1.5,3.8-1.5,6.2c0,2.3,0.5,4.4,1.5,6.2c1,1.8,2.3,3.2,4,4.2c1.7,1,3.6,1.5,5.7,1.5C959.4,461.3,961.3,460.8,963,459.9z"/>
	<path class="st1" d="M1025.6,428.9v41.2h-9.6l-18.2-22v22h-11.4v-41.2h9.6l18.2,22v-22H1025.6z"/>
	<path class="st1" d="M1061.5,462.2H1044l-3.2,8h-11.9l18.2-41.2h11.5l18.3,41.2h-12.1L1061.5,462.2z M1058,453.6l-5.3-13.2
		l-5.3,13.2H1058z"/>
	<path class="st1" d="M1088.5,468.3c-3.4-1.8-6.1-4.4-8.1-7.6c-2-3.3-2.9-6.9-2.9-11.1c0-4.1,1-7.8,2.9-11.1c2-3.3,4.7-5.8,8.1-7.6
		s7.3-2.7,11.6-2.7c3.8,0,7.2,0.7,10.2,2c3,1.3,5.5,3.3,7.5,5.8l-7.4,6.7c-2.7-3.2-5.9-4.8-9.7-4.8c-2.2,0-4.2,0.5-6,1.5
		c-1.7,1-3.1,2.4-4.1,4.2c-1,1.8-1.4,3.8-1.4,6.2c0,2.3,0.5,4.4,1.4,6.2c1,1.8,2.3,3.2,4.1,4.2c1.7,1,3.7,1.5,6,1.5
		c3.8,0,7-1.6,9.7-4.8l7.4,6.7c-2,2.5-4.5,4.4-7.5,5.8c-3,1.3-6.4,2-10.2,2C1095.8,471,1091.9,470.1,1088.5,468.3z"/>
	<path class="st1" d="M1123,428.9h11.7v41.2H1123V428.9z"/>
	<path class="st1" d="M1152,468.2c-3.5-1.8-6.2-4.4-8.2-7.7c-2-3.3-3-6.9-3-11c0-4.1,1-7.8,3-11c2-3.3,4.7-5.8,8.2-7.7
		c3.5-1.8,7.4-2.8,11.7-2.8c4.4,0,8.3,0.9,11.7,2.8c3.5,1.8,6.2,4.4,8.2,7.7c2,3.3,3,6.9,3,11c0,4.1-1,7.8-3,11
		c-2,3.3-4.7,5.8-8.2,7.7c-3.5,1.8-7.4,2.8-11.7,2.8C1159.4,471,1155.5,470.1,1152,468.2z M1169.4,459.9c1.7-1,3-2.4,4-4.2
		c1-1.8,1.5-3.8,1.5-6.2c0-2.3-0.5-4.4-1.5-6.2s-2.3-3.2-4-4.2c-1.7-1-3.6-1.5-5.7-1.5c-2.1,0-4,0.5-5.7,1.5s-3,2.4-4,4.2
		c-1,1.8-1.5,3.8-1.5,6.2c0,2.3,0.5,4.4,1.5,6.2c1,1.8,2.3,3.2,4,4.2c1.7,1,3.6,1.5,5.7,1.5C1165.8,461.3,1167.7,460.8,1169.4,459.9
		z M1165.9,416.6h11.2l-11.1,9h-8L1165.9,416.6z"/>
	<path class="st1" d="M1232,428.9v41.2h-9.6l-18.2-22v22h-11.4v-41.2h9.6l18.2,22v-22H1232z"/>
</g>
<g>
	<g>
		<path class="st1" d="M607.5,203.8c0.4-2.8,0.8-5.7,1.3-8.5c6.1-33.4,34.3-59.9,68.1-63.9c22.1-2.6,42,2.9,59.5,16.6
			c0.7,0.6,1.4,1.2,2.1,1.8c12,12,23.8,24.3,36.2,36c10.9,10.2,8.4,26.4-2.3,34.6c-6.5,5-13.7,6.6-21.7,4c-3.1-1-5.6-2.9-7.9-5.2
			c-17.8-17.8-35.6-35.7-53.4-53.5c-0.5-0.5-0.8-1.1-1.2-1.7c-1.9,2-3.5,3.6-5.1,5.4c6.2,6.1,12.6,12.4,19.5,19.3
			c-0.9,0.5-1.6,0.8-2.1,1.3c-19.9,19.8-39.7,39.7-59.6,59.5c-5.1,5.1-8.1,11-8,18.3c0,0.2-0.1,0.4-0.2,0.8c-0.5-0.4-0.8-0.7-1.1-1
			c-13.5-14.4-21.9-31.2-23.9-51.1c0-0.4-0.2-0.9-0.3-1.3C607.5,211.5,607.5,207.6,607.5,203.8z"/>
		<path class="st1" d="M800.2,280.7c-2.4-2.4-4.3-4.3-6.4-6.4c-0.4,0.4-0.9,0.8-1.3,1.3c-21.2,21.2-42.4,42.4-63.6,63.6
			c-5.1,5.1-11.7,6.5-18.1,3.8c-6.4-2.7-10.6-9.1-10.5-15.9c0.1-4.5,1.9-8.2,5.1-11.4c21.2-21.2,42.3-42.3,63.5-63.5
			c0.5-0.5,1.2-0.8,1.6-1.1c-2.6-2.6-4.9-4.9-7.3-7.2c-0.3,0.3-0.8,0.7-1.3,1.2c-21.3,21.2-42.5,42.5-63.8,63.7
			c-5.4,5.4-13,6.5-19.5,2.9c-6.6-3.6-10.1-11.1-8.6-18.3c0.6-2.9,1.9-5.4,4-7.5c20.6-20.7,41.3-41.3,61.9-61.9
			c0.2-0.2,0.4-0.4,0.7-0.6c0.4,0.3,0.7,0.6,1,0.9c8.9,9.5,22.8,11.3,34.8,4.7c12.7-7,19.1-21.8,15.3-35.2
			c-1.3-4.6-3.8-8.5-7.2-11.8c-9.5-9.4-18.9-18.9-28.4-28.4c-0.4-0.4-1-0.8-1.7-1.3c0.8-0.8,1.3-1.3,1.9-1.8
			c23.7-19.7,50.5-25.3,79.5-14.8c29,10.5,46.6,32,51.5,62.6c3.7,22.8-2.9,43.3-16.7,61.5c-2.7,3.5-5.7,6.9-8.8,10
			c-33.2,33.1-66.4,66.1-99.6,99.1c-6.7,6.6-16.8,6.6-23.4,0c-6.7-6.7-6.7-16.9,0-23.5c21.2-21.2,42.4-42.4,63.6-63.6
			C799,281.3,799.7,281,800.2,280.7z"/>
		<path class="st1" d="M706.9,193.8c7.8,7.8,15.5,15.5,23.4,23.4c-0.2,0.2-0.5,0.6-0.9,1c-20.3,20.3-40.7,40.7-61,61
			c-5.7,5.7-14.1,6.4-20.7,1.8c-6.7-4.6-9.4-13.1-6.2-20.3c0.8-1.8,1.9-3.5,3.3-4.8c20.5-20.6,41-41,61.5-61.6
			C706.4,194.2,706.7,194,706.9,193.8z"/>
	</g>
</g>
</svg>
